<svg xmlns="http://www.w3.org/2000/svg" xmlns:xlink="http://www.w3.org/1999/xlink" viewBox="0,0,256,256" width="400px" height="400px"><g fill="#625e5e" fill-rule="nonzero" stroke="none" stroke-width="1" stroke-linecap="butt" stroke-linejoin="miter" stroke-miterlimit="10" stroke-dasharray="" stroke-dashoffset="0" font-family="none" font-weight="none" font-size="none" text-anchor="none" style="mix-blend-mode: normal"><g transform="scale(5.12,5.12)"><path d="M11,3v7h11v14c0,6.168 -0.168,6.3628 -9,10.3418l-0.87891,0.39453l0.36328,0.89258c0.697,1.718 1.65194,3.31314 2.83594,4.74414l0.48438,0.58398l0.69336,-0.30859c10.282,-4.591 12.50195,-7.37144 12.50195,-15.64844v-22zM32,3v23c0,9.483 -3.37469,12.02853 -12.30469,16.39453l-1.58203,0.77344l1.47461,0.96094c1.151,0.752 2.34033,1.52839 4.98633,2.77539l0.42578,0.20117l0.42578,-0.20117c6.712,-3.161 13.57422,-7.9983 13.57422,-19.9043v-24z"></path></g></g></svg>