<svg width="60" height="60" viewBox="0 0 60 60" fill="none" xmlns="http://www.w3.org/2000/svg">
<path fill-rule="evenodd" clip-rule="evenodd" d="M0 33.6186V0C2.16952 1.0114 3.32328 2.41803 3.54766 2.99984C3.79841 3.65053 3.92629 4.33406 4.05431 5.01834C4.12458 5.39392 4.19489 5.76973 4.28558 6.14046C4.78609 8.18937 6.15263 9.67635 8.40012 10.5832C9.68396 11.1009 10.9648 11.6238 12.3235 12.1786C12.9253 12.4243 13.5423 12.6762 14.1817 12.9367C14.1538 12.6241 14.125 12.3489 14.0989 12.0986C14.0471 11.6022 14.0055 11.2036 14.0007 10.8047C13.9913 10.0164 14.4419 9.44212 15.3561 9.22612C16.0587 9.06025 16.8032 8.82369 17.5726 8.57922C21.5705 7.30887 26.241 5.82482 29.205 12.9346C30.329 15.6308 32.0142 19.5726 33.4224 22.2012C33.4334 22.222 33.4467 22.2446 33.4599 22.2671C33.4654 22.2764 33.4708 22.2857 33.4761 22.2948C34.5177 22.4759 35.4948 22.9488 36.2182 23.6986L36.46 23.9485C37.0863 24.5979 37.4337 25.3617 37.5148 26.1369C38.3985 26.3613 39.2149 26.8036 39.8415 27.4525L40.0831 27.7027C40.7094 28.3521 41.057 29.1157 41.1379 29.8911C42.022 30.1153 42.8382 30.5575 43.4648 31.2064L43.7064 31.4566C44.3327 32.106 44.6801 32.8699 44.7612 33.645C45.6451 33.8695 46.4615 34.3114 47.0881 34.9604L47.3295 35.2108C47.956 35.8599 48.3036 36.6235 48.3845 37.399C49.2683 37.6234 50.0848 38.0654 50.7112 38.7146L50.9529 38.9649C51.6838 39.7218 55.9632 45.2332 57.5783 47.3132C57.8217 47.6268 58.0047 47.8624 58.1057 47.9919C62.9125 54.1522 58.3707 58.6652 46.7561 55.9805C46.7534 55.9824 46.751 55.9845 46.7486 55.9865C46.7464 55.9884 46.7442 55.9902 46.7418 55.9917L45.6819 56.7142L45.0082 58.624C44.6631 59.6027 43.6527 60.1839 42.7083 59.9473C41.7639 59.7106 41.2948 58.758 41.6401 57.779L42.3138 55.8695L41.8946 54.7757C41.8892 54.7619 41.8863 54.7475 41.8821 54.7333C38.737 53.8513 35.7011 52.7399 32.7281 51.5096L31.7371 52.0135L30.76 53.8275C30.2591 54.7573 29.164 55.2163 28.2669 54.873C27.37 54.5297 27.0599 53.5321 27.5606 52.6022L28.5377 50.7881L28.2998 49.6565C28.2948 49.6318 28.2927 49.6073 28.2906 49.5825C27.8194 49.3701 27.3491 49.1562 26.8797 48.941C24.2032 47.7121 21.5496 46.4447 18.9215 45.1411L17.8421 45.5484L16.6108 47.2487C15.9799 48.1204 14.8264 48.4642 13.9855 48.0313C13.1448 47.5988 12.9807 46.5765 13.6117 45.7051L14.8429 44.0045L14.782 43.046C14.3379 42.8166 13.8941 42.587 13.4516 42.3558C11.2835 41.2218 9.25417 39.8557 7.36129 38.397C4.66677 36.3207 2.19084 34.7774 0 33.6186ZM8.778 30.5033C8.98848 30.6129 9.2472 30.6417 9.48685 30.5786C14.3763 29.2925 19.0776 28.038 24.7154 26.5316C24.9785 26.4614 25.1857 26.2888 25.2726 26.068C25.3595 25.8472 25.3155 25.6046 25.1543 25.4157C24.098 24.1778 23.0524 22.8959 22.0469 21.6057C21.8353 21.3345 21.4352 21.2142 21.0675 21.3123L4.13748 25.8278C3.83866 25.9075 3.61466 26.1177 3.55299 26.3769C3.49131 26.636 3.60132 26.9031 3.8405 27.0739C5.44931 28.2228 7.08113 29.3591 8.69068 30.4512C8.71865 30.4701 8.74772 30.4875 8.778 30.5033ZM18.2878 36.5353C18.4988 36.6452 18.7572 36.6734 18.9961 36.6108C22.8157 35.6088 26.5655 34.6101 30.5344 33.5531L30.5554 33.5475L31.5298 33.2879C31.807 33.2141 32.0213 33.0272 32.0998 32.7912C32.1781 32.5553 32.11 32.3018 31.9185 32.1174C30.7642 31.0056 29.5691 29.7746 28.367 28.4586C28.1475 28.2185 27.7746 28.1184 27.431 28.2079C22.6054 29.4629 17.6865 30.7813 13.3443 31.9451L13.3215 31.9512C13.0165 32.0328 12.7905 32.2504 12.7345 32.5159C12.6787 32.7815 12.8018 33.0512 13.0546 33.2166C14.772 34.3396 16.5139 35.4456 18.2324 36.5038C18.2506 36.515 18.2689 36.5255 18.2878 36.5353ZM28.644 42.1814L39.4672 39.4787C39.7813 39.4003 40.0157 39.1786 40.0713 38.9062C40.1269 38.6339 39.9946 38.3586 39.7297 38.1958C38.3061 37.3216 36.7832 36.1954 35.2027 34.8484C34.9771 34.656 34.6435 34.5854 34.3369 34.6653C32.9672 35.0213 31.5803 35.3929 30.2378 35.7527L30.1948 35.7642L22.7632 37.752C22.4505 37.8355 22.2216 38.0614 22.1723 38.3348C22.123 38.608 22.2622 38.8811 22.531 39.0393C24.668 40.2961 26.6475 41.3946 27.9319 42.0949C27.9368 42.0977 27.9419 42.1003 27.9469 42.1029C28.1551 42.2114 28.4087 42.2401 28.644 42.1814Z" fill="#D4D4D9"/>
</svg>
