<svg width="20" height="20" viewBox="0 0 20 20" fill="none" xmlns="http://www.w3.org/2000/svg">
<path d="M6.80664 5.1875C6.80664 6.24219 5.95703 7.0625 4.93164 7.0625C3.87695 7.0625 3.05664 6.24219 3.05664 5.1875C3.05664 4.16211 3.87695 3.3125 4.93164 3.3125C5.95703 3.3125 6.80664 4.16211 6.80664 5.1875ZM1.5625 9.875C1.5625 8.84961 2.38281 8 3.4375 8H6.25C6.60156 8 6.92383 8.11719 7.2168 8.29297C6.13281 8.73242 5.2832 9.66992 4.99023 10.8125H2.5C1.97266 10.8125 1.5625 10.4023 1.5625 9.875ZM12.7832 8.26367C13.0762 8.11719 13.3984 8 13.75 8H16.5625C17.5879 8 18.4375 8.84961 18.4375 9.875C18.4375 10.4023 17.998 10.8125 17.5 10.8125H15.0684C14.7754 9.64062 13.8965 8.70312 12.7832 8.26367ZM12.0801 9.02539C13.0176 9.23047 13.7793 9.93359 14.1016 10.8125C14.1895 11.1055 14.248 11.4277 14.248 11.75C14.248 12.2773 13.8379 12.6875 13.3105 12.6875H6.74805C6.2207 12.6875 5.81055 12.2773 5.81055 11.75C5.81055 11.4277 5.86914 11.1055 5.98633 10.8125C6.2793 9.96289 7.01172 9.28906 7.91992 9.05469C8.125 8.99609 8.38867 8.9375 8.62305 8.9375H11.4355C11.6699 8.9375 11.875 8.9668 12.0801 9.02539ZM17.1191 5.1875C17.1191 6.24219 16.2695 7.0625 15.2441 7.0625C14.1895 7.0625 13.3691 6.24219 13.3691 5.1875C13.3691 4.16211 14.1895 3.3125 15.2441 3.3125C16.2695 3.3125 17.1191 4.16211 17.1191 5.1875ZM7.68555 5.65625C7.68555 4.36719 8.74023 3.3125 10.0293 3.3125C11.3184 3.3125 12.373 4.36719 12.373 5.65625C12.373 6.97461 11.3184 8 10.0293 8C8.74023 8 7.68555 6.97461 7.68555 5.65625ZM18.4375 14.5625C18.9355 14.5625 19.375 15.002 19.375 15.5C19.375 16.0273 18.9355 16.4375 18.4375 16.4375H1.5625C1.03516 16.4375 0.625 16.0273 0.625 15.5C0.625 15.002 1.03516 14.5625 1.5625 14.5625H18.4375Z" fill="#262626"/>
</svg>
