<svg width="15" height="15" viewBox="0 0 15 15" fill="none" xmlns="http://www.w3.org/2000/svg">
<g clip-path="url(#clip0_141_2)">
<path d="M8.45 4.48124V1.81874C8.44999 1.74614 8.47005 1.67495 8.50797 1.61303C8.54589 1.55112 8.60018 1.5009 8.66486 1.46791C8.72954 1.43493 8.80207 1.42046 8.87445 1.42613C8.94683 1.43179 9.01624 1.45735 9.075 1.49999L14.8375 6.16249C14.8878 6.19763 14.9288 6.24439 14.9572 6.29879C14.9856 6.3532 15.0004 6.41364 15.0004 6.47499C15.0004 6.53634 14.9856 6.59678 14.9572 6.65118C14.9288 6.70559 14.8878 6.75235 14.8375 6.78749L9.0625 11.4625C9.00374 11.5051 8.93433 11.5307 8.86195 11.5364C8.78957 11.542 8.71704 11.5276 8.65236 11.4946C8.58768 11.4616 8.53339 11.4114 8.49547 11.3494C8.45755 11.2875 8.43749 11.2163 8.4375 11.1437V8.67499C4.8375 8.67499 1.78125 10.2812 0.6625 13.05C0.598491 12.6741 0.565049 12.2937 0.5625 11.9125C0.56875 7.81249 4.09375 4.48124 8.45 4.48124Z" fill="black"/>
</g>
<defs>
<clipPath id="clip0_141_2">
<rect width="15" height="15" fill="white"/>
</clipPath>
</defs>
</svg>
