<svg width="20" height="20" viewBox="0 0 20 20" fill="none" xmlns="http://www.w3.org/2000/svg">
<path d="M5.3125 2.375C5.69336 2.375 6.01562 2.69727 6.01562 3.07812V4.25H10.2344V3.07812C10.2344 2.69727 10.5273 2.375 10.9375 2.375C11.3184 2.375 11.6406 2.69727 11.6406 3.07812V4.25H12.8125C13.8379 4.25 14.6875 5.09961 14.6875 6.125V8H2.96875V15.5C2.96875 15.7637 3.17383 15.9688 3.4375 15.9688H9.23828L9.0918 16.584C9.0332 16.8477 9.0332 17.1406 9.12109 17.375H3.4375C2.38281 17.375 1.5625 16.5547 1.5625 15.5V6.125C1.5625 5.09961 2.38281 4.25 3.4375 4.25H4.60938V3.07812C4.60938 2.69727 4.90234 2.375 5.3125 2.375ZM10.2344 9.875C10.6152 9.875 10.9375 10.1973 10.9375 10.5781C10.9375 10.9883 10.6152 11.2812 10.2344 11.2812H5.07812C4.66797 11.2812 4.375 10.9883 4.375 10.5781C4.375 10.1973 4.66797 9.875 5.07812 9.875H10.2344ZM4.375 13.3906C4.375 13.0098 4.66797 12.6875 5.07812 12.6875H8.35938C8.74023 12.6875 9.0625 13.0098 9.0625 13.3906C9.0625 13.8008 8.74023 14.0938 8.35938 14.0938H5.07812C4.66797 14.0938 4.375 13.8008 4.375 13.3906ZM18.0859 9.72852C18.5254 10.168 18.5254 10.9004 18.0859 11.3691L17.207 12.248L15.127 10.168L16.0059 9.28906C16.4453 8.84961 17.207 8.84961 17.6465 9.28906L18.0859 9.72852ZM10.6738 14.5918L14.4824 10.8125L16.5625 12.8926L12.7539 16.6719C12.6367 16.7891 12.4902 16.877 12.3438 16.9355L10.5566 17.375C10.4102 17.4043 10.2344 17.375 10.1172 17.2578C10 17.1406 9.9707 16.9648 10 16.7891L10.4395 15.0312C10.4688 14.8848 10.5566 14.7383 10.6738 14.5918Z" fill="#262626"/>
</svg>
