<svg width="12" height="16" viewBox="0 0 12 16" fill="none" xmlns="http://www.w3.org/2000/svg">
<path d="M10 0C11.0938 0 12 0.90625 12 2V15.5C12 15.6875 11.875 15.875 11.7188 15.9688C11.6562 16 11.5625 16 11.5 16C11.4062 16 11.3125 16 11.2188 15.9062L6 12.5938L0.75 15.9062C0.59375 16 0.40625 16 0.25 15.9375C0.09375 15.8438 0 15.6562 0 15.5V2C0 0.90625 0.875 0 2 0H10ZM11 14.5938V2C11 1.46875 10.5312 1 10 1H2C1.4375 1 1 1.46875 1 2V14.5938L5.71875 11.5938C5.8125 11.5312 5.90625 11.5 6 11.5C6.09375 11.5 6.15625 11.5312 6.25 11.5938L11 14.5938Z" fill="#262626"/>
</svg>
