<svg width="20" height="20" viewBox="0 0 20 20" fill="none" xmlns="http://www.w3.org/2000/svg">
<path d="M5.98633 4.25H10.2344V3.07812C10.2344 2.69727 10.5273 2.375 10.9375 2.375C11.3184 2.375 11.6406 2.69727 11.6406 3.07812V4.25H12.8125C13.8379 4.25 14.6875 5.09961 14.6875 6.125V8H2.93945V15.5C2.93945 15.7637 3.17383 15.9688 3.4082 15.9688H9.88281C10.2344 16.5254 10.7031 17.0234 11.2305 17.375H3.4375C2.38281 17.375 1.5625 16.5547 1.5625 15.5V6.125C1.5625 5.09961 2.38281 4.25 3.4375 4.25H4.60938V3.07812C4.60938 2.69727 4.90234 2.375 5.3125 2.375C5.69336 2.375 6.01562 2.69727 6.01562 3.07812L5.98633 4.25ZM18.4375 13.1562C18.4375 15.5 16.5332 17.375 14.2188 17.375C11.875 17.375 9.9707 15.5 9.9707 13.1562C9.9707 10.8418 11.875 8.9375 14.2188 8.9375C16.5332 8.9375 18.4375 10.8418 18.4375 13.1562ZM13.75 11.2812V12.6875H12.3438C12.0801 12.6875 11.875 12.9219 11.875 13.1562C11.875 13.4199 12.0801 13.625 12.3438 13.625H13.75V15.0312C13.75 15.2949 13.9551 15.5 14.2188 15.5C14.4531 15.5 14.6875 15.2949 14.6875 15.0312V13.625H16.0938C16.3281 13.625 16.5625 13.4199 16.5625 13.1562C16.5625 12.9219 16.3281 12.6875 16.0938 12.6875H14.6875V11.2812C14.6875 11.0469 14.4531 10.8125 14.2188 10.8125C13.9551 10.8125 13.75 11.0469 13.75 11.2812Z" fill="#262626"/>
</svg>
