<svg width="20" height="20" viewBox="0 0 20 20" fill="none" xmlns="http://www.w3.org/2000/svg">
<path d="M14.4531 13.3613C14.7168 13.6543 14.7168 14.0938 14.4531 14.3574C14.1602 14.6504 13.7207 14.6504 13.457 14.3574L10 10.8711L6.51367 14.3574C6.2207 14.6504 5.78125 14.6504 5.51758 14.3574C5.22461 14.0938 5.22461 13.6543 5.51758 13.3613L9.00391 9.875L5.51758 6.38867C5.22461 6.0957 5.22461 5.65625 5.51758 5.39258C5.78125 5.09961 6.2207 5.09961 6.48438 5.39258L10 8.9082L13.4863 5.42188C13.75 5.12891 14.1895 5.12891 14.4531 5.42188C14.7461 5.68555 14.7461 6.125 14.4531 6.41797L10.9668 9.875L14.4531 13.3613Z" fill="#262626"/>
</svg>
