<svg width="20" height="20" viewBox="0 0 20 20" fill="none" xmlns="http://www.w3.org/2000/svg">
<path d="M2.03125 6.125V13.625C2.03125 13.8887 2.23633 14.0938 2.5 14.0938H10.8203C10.6445 14.3281 10.5273 14.5625 10.4688 14.8262L10.293 15.5H2.5C1.44531 15.5 0.625 14.6797 0.625 13.625V6.125C0.625 5.09961 1.44531 4.25 2.5 4.25H15.625C16.6504 4.25 17.5 5.09961 17.5 6.125V8.0293C17.0312 8.08789 16.6211 8.29297 16.2695 8.64453L16.0938 8.82031V6.125C16.0938 5.89062 15.8594 5.65625 15.625 5.65625H2.5C2.23633 5.65625 2.03125 5.89062 2.03125 6.125ZM10.2344 10.3438C10.6152 10.3438 10.9375 10.666 10.9375 11.0469C10.9375 11.457 10.6152 11.75 10.2344 11.75H4.14062C3.73047 11.75 3.4375 11.457 3.4375 11.0469C3.4375 10.666 3.73047 10.3438 4.14062 10.3438H10.2344ZM3.4375 8.23438C3.4375 7.85352 3.73047 7.53125 4.14062 7.53125H13.0469C13.4277 7.53125 13.75 7.85352 13.75 8.23438C13.75 8.64453 13.4277 8.9375 13.0469 8.9375H4.14062C3.73047 8.9375 3.4375 8.64453 3.4375 8.23438ZM19.0234 9.72852C19.4629 10.168 19.4629 10.9004 19.0234 11.3691L18.1445 12.248L16.0645 10.168L16.9434 9.28906C17.3828 8.84961 18.1445 8.84961 18.584 9.28906L19.0234 9.72852ZM11.6113 14.5918L15.4199 10.8125L17.5 12.8926L13.6914 16.6719C13.5742 16.7891 13.4277 16.877 13.2812 16.9355L11.4941 17.375C11.3477 17.4043 11.1719 17.375 11.0547 17.2578C10.9375 17.1406 10.9082 16.9648 10.9375 16.7891L11.377 15.0312C11.4062 14.8848 11.4941 14.7383 11.6113 14.5918Z" fill="#262626"/>
</svg>
